<?xml version="1.0" encoding="utf-8"?>
<!-- Generator: Adobe Illustrator 23.0.0, SVG Export Plug-In . SVG Version: 6.00 Build 0)  -->
<svg version="1.1" id="handbag_1_" xmlns="http://www.w3.org/2000/svg" xmlns:xlink="http://www.w3.org/1999/xlink" x="0px" y="0px"
	 viewBox="0 0 31.9 32" style="enable-background:new 0 0 31.9 32;" xml:space="preserve">
<style type="text/css">
	.st0{fill-rule:evenodd;clip-rule:evenodd;fill:#1B1B1B;}
</style>
<g id="handbag">
	<g>
		<path class="st0" d="M31.8,29.9l-2.5-17C29.1,11.2,27.7,10,26,10h-3V7c0,0,0,0,0,0c0-3.8-3.2-7-7-7c-3.9,0-7,3.1-7,7c0,0,0,0,0,0
			v3h-3c-1.6,0-3.1,1.2-3.3,2.8L0,29.9c-0.1,0.5,0.1,1.1,0.4,1.5C0.8,31.8,1.3,32,1.9,32h28.2c0.6,0,1.1-0.2,1.4-0.7
			C31.8,30.9,31.9,30.3,31.8,29.9z M10.9,7c0-2.8,2.3-5,5-5c2.8,0,5,2.2,5,5v3H10.9V7z M2,30l2.6-16.9C4.7,12.5,5.3,12,5.9,12h3v2.3
			c-0.6,0.3-1,1-1,1.7c0,1.1,0.9,2,2,2c1.1,0,2-0.9,2-2c0-0.7-0.4-1.4-1-1.7V12H21v2.3c-0.6,0.3-1,1-1,1.7c0,1.1,0.9,2,2,2
			c1.1,0,2-0.9,2-2c0-0.7-0.4-1.4-1-1.7V12h3c0.6,0,1.2,0.5,1.3,1.1L29.8,30H2z M9.9,16l0,1L9.9,16C9.9,16,9.9,16,9.9,16z M22,16
			l0,1L22,16C22,16,22,16,22,16z M30.1,31v-1h0L30.1,31z"/>
	</g>
</g>
</svg>
