<?xml version="1.0" encoding="utf-8"?>
<!-- Generator: Adobe Illustrator 22.0.0, SVG Export Plug-In . SVG Version: 6.00 Build 0)  -->
<svg version="1.1" id="magnifier_1_" xmlns="http://www.w3.org/2000/svg" xmlns:xlink="http://www.w3.org/1999/xlink" x="0px"
	 y="0px" viewBox="0 0 31.9 32" style="enable-background:new 0 0 31.9 32;" xml:space="preserve">
<style type="text/css">
	.st0{fill-rule:evenodd;clip-rule:evenodd;fill:#1B1B1B;}
</style>
<g id="magnifier">
	<g>
		<path class="st0" d="M31.6,30.3L21.1,19.7c1.8-2.1,2.8-4.8,2.8-7.7c0-6.6-5.4-12-12-12C5.4,0,0,5.4,0,12c0,6.6,5.4,12,12,12
			c2.9,0,5.6-1.1,7.7-2.8l10.5,10.6c0.2,0.2,0.4,0.3,0.7,0.3c0.3,0,0.5-0.1,0.7-0.3C32,31.3,32,30.7,31.6,30.3z M2,12
			C2,6.5,6.5,2,12,2c5.5,0,10,4.5,10,10c0,5.5-4.5,10-10,10C6.5,22,2,17.5,2,12z"/>
	</g>
</g>
</svg>
